<svg width="305" height="240" viewBox="0 0 305 240" fill="none" xmlns="http://www.w3.org/2000/svg">
<path d="M56.4104 194.546C56.5513 194.123 56.7627 193.7 56.9037 193.278C57.256 192.432 57.5379 191.586 57.8198 190.741C58.8768 187.71 59.793 184.68 60.5681 181.579C61.4138 178.479 61.9775 175.378 62.3299 172.207C62.3299 172.418 62.1185 173.616 62.2594 172.771L62.3299 172.136C62.4004 171.784 62.4003 171.432 62.4708 171.15C62.5413 170.375 62.6118 169.6 62.6822 168.824C62.8232 167.274 62.8936 165.724 62.9641 164.173C63.0346 161.002 63.0346 157.831 62.8232 154.589C62.7527 153.039 62.6118 151.489 62.4004 149.938C62.4004 149.586 62.3299 149.304 62.2594 148.952V148.67C62.1185 147.895 62.048 147.12 61.9071 146.344C61.4138 143.526 60.85 140.707 60.0748 137.958L19.2022 161.566C15.6082 163.68 14.3397 168.331 16.4538 171.925C17.0881 173.053 18.0747 174.039 19.2022 174.673L55.8466 195.885L56.3399 194.828L56.4104 194.546Z" fill="#1FAB89"/>
<path d="M145.414 127.106L152.25 131.053C153.448 131.757 154.646 132.462 155.914 133.167L156.337 133.378L157.746 132.603L160.988 130.771C163.173 129.502 165.357 128.234 167.612 126.966C172.052 124.358 176.491 121.751 180.931 119.073C195.025 110.616 208.978 101.808 222.72 92.6466L187.837 72.5626C183.257 69.8847 177.619 69.8847 173.038 72.5626L112.082 107.868L131.672 119.143L145.414 127.106Z" fill="#1FAB89"/>
<path d="M158.804 208.147C158.099 208.217 157.465 208.147 156.83 207.936C150.418 205.821 144.075 203.707 137.663 201.593C116.028 194.335 94.5349 186.654 73.1824 178.69C71.773 186.654 69.4475 194.405 66.0649 201.805L126.951 237.04C131.884 239.858 137.874 239.858 142.807 237.04L161.34 226.258C160.565 221.043 159.79 215.828 159.085 210.684C159.015 209.768 158.945 208.993 158.804 208.147Z" fill="#1FAB89"/>
<path d="M74.5919 166.711C80.5114 168.966 86.5014 171.15 92.4913 173.335C113.985 181.157 135.549 188.627 157.253 195.744C155.139 178.69 153.518 161.566 152.25 144.372C151.827 144.231 151.475 144.019 151.052 143.808C148.656 142.68 146.471 141.271 144.146 139.932L136.958 135.774L122.934 127.741L100.173 114.704L70.5046 131.898C70.9979 133.378 71.4208 134.858 71.7731 136.338C74.2396 146.274 75.1557 156.492 74.5919 166.711Z" fill="#1FAB89"/>
<path d="M295.727 134.717L233.924 99.1294C225.679 104.626 217.364 110.052 209.048 115.408C205.032 117.945 200.944 120.482 196.857 123.019C201.015 125.556 205.173 128.163 209.33 130.7C227.934 142.257 246.398 154.026 264.72 166.006L295.727 147.965C299.391 145.851 300.66 141.13 298.546 137.465C297.841 136.408 296.854 135.421 295.727 134.717Z" fill="#1FAB89"/>
<path d="M185.582 129.925L182.411 131.828C177.901 134.506 173.461 137.113 168.881 139.721C167.19 140.707 165.569 141.694 163.877 142.61C164.3 148.459 164.794 154.378 165.287 160.227C166.273 171.573 167.471 182.848 168.81 194.124C169.163 196.942 169.515 199.761 169.867 202.509C170.079 203.989 170.22 205.469 170.431 206.949V207.09L170.572 207.865L170.854 209.979C171.347 213.291 171.77 216.604 172.263 219.916L253.374 172.701L250.978 171.15C229.344 157.127 207.569 143.385 185.582 129.925Z" fill="#1FAB89"/>
<path d="M196.858 123.019C200.945 120.482 205.032 117.945 209.049 115.408C217.435 110.123 225.68 104.697 233.925 99.1297L222.579 92.6465C208.838 101.737 194.955 110.546 180.79 119.073C176.351 121.751 171.911 124.358 167.472 126.965C165.287 128.234 163.102 129.502 160.847 130.771L157.606 132.603L156.267 133.378L155.844 133.167C154.646 132.462 153.378 131.757 152.18 131.053L145.344 127.106L131.461 119.143L111.871 107.868L100.102 114.704L122.794 127.741L136.817 135.774L144.005 139.932C146.26 141.271 148.515 142.68 150.911 143.808C151.334 144.019 151.686 144.16 152.109 144.372C153.378 161.566 155.069 178.69 157.112 195.744C135.408 188.627 113.773 181.157 92.3504 173.335C86.3605 171.15 80.441 168.966 74.451 166.711C75.0852 156.492 74.0987 146.274 71.6322 136.338C71.2799 134.858 70.857 133.378 70.3637 131.898L59.8637 137.959C60.5684 140.707 61.1322 143.455 61.6255 146.274C61.7664 147.049 61.9073 147.825 61.9778 148.6V148.882C61.9778 149.234 62.0483 149.516 62.1187 149.868C62.3302 151.419 62.4711 152.969 62.5416 154.519C62.753 157.69 62.8234 160.862 62.6825 164.103C62.612 165.654 62.5416 167.204 62.4006 168.754C62.3302 169.529 62.2597 170.305 62.1892 171.08C62.1892 171.432 62.1187 171.714 62.0483 172.066L61.9778 172.771C61.9073 173.617 62.0483 172.419 62.0483 172.207C61.6959 175.378 61.1322 178.479 60.2865 181.58C59.5114 184.68 58.5952 187.711 57.5382 190.741C57.2563 191.587 56.904 192.432 56.6221 193.278C56.4811 193.701 56.2697 194.123 56.1288 194.546L55.9878 194.828L55.6355 195.885L65.8537 201.805C69.1658 194.405 71.5617 186.654 72.9711 178.69C94.3236 186.654 115.817 194.335 137.451 201.593C143.794 203.707 150.206 205.821 156.619 207.936C157.253 208.147 157.958 208.217 158.592 208.147C158.663 208.922 158.804 209.768 158.945 210.543C159.649 215.758 160.425 220.973 161.2 226.187L172.052 219.845C171.559 216.533 171.136 213.221 170.643 209.909L170.361 207.795L170.22 207.019V206.949C170.008 205.469 169.868 203.989 169.656 202.509C169.304 199.691 168.951 196.942 168.599 194.123C167.26 182.848 166.062 171.573 165.076 160.227C164.582 154.378 164.089 148.459 163.666 142.61C165.357 141.694 167.049 140.637 168.67 139.721C173.18 137.113 177.69 134.506 182.2 131.828L185.371 129.925C207.358 143.385 229.133 157.127 250.767 171.15L253.163 172.701L264.579 166.076C246.257 154.096 227.794 142.328 209.19 130.771C205.173 128.163 201.015 125.626 196.858 123.019Z" fill="#F8E6D2"/>
<path opacity="0.46" d="M70.4341 175.096C79.658 175.096 87.1355 173.551 87.1355 171.643C87.1355 169.736 79.658 168.19 70.4341 168.19C61.2101 168.19 53.7327 169.736 53.7327 171.643C53.7327 173.551 61.2101 175.096 70.4341 175.096Z" fill="#8EC62C"/>
<path opacity="0.46" d="M144.075 142.962L180.861 119.002L215.391 108.996L221.451 111.603L161.763 152.828L144.075 142.962Z" fill="#8EC62C"/>
<path d="M162.186 26.8274C162.75 26.3341 163.454 26.1932 164.159 26.4046C164.511 26.4751 164.864 26.2637 164.934 25.9818C165.005 25.6294 164.793 25.2771 164.511 25.2066C163.384 24.8543 162.186 25.1362 161.27 25.9113C160.776 26.5456 161.622 27.4617 162.186 26.8274Z" fill="#F15A24"/>
<path d="M206.089 31.4786C206.089 31.2672 207.992 33.4517 208.344 35.4954C208.696 37.539 207.921 43.4585 207.216 44.1632C206.512 44.8679 203.341 45.7135 203.341 45.7135" fill="#626262"/>
<path d="M192.065 16.3273C190.797 20.9078 189.74 25.4884 188.612 30.0689C188.26 31.1965 188.119 32.3945 188.26 33.5925C188.612 35.0723 189.388 36.4817 190.515 37.5388C193.052 40.4281 195.73 43.1764 198.69 45.7133C199.324 46.3475 200.099 46.8408 201.015 47.1227C201.861 47.2637 202.706 47.1932 203.482 46.9818C204.609 46.9113 205.525 45.9952 205.455 44.8677C205.455 44.7972 205.455 44.7267 205.455 44.6563C206.089 38.8072 206.089 32.9582 206.23 27.0387C206.3 25.0656 206.371 23.0219 205.525 21.1897C204.68 19.428 203.2 18.0186 201.368 17.1729C198.337 15.7635 195.378 14.3541 191.925 13.6494" fill="#626262"/>
<path d="M173.179 32.8176C171.558 31.9719 170.713 30.2806 169.162 29.2236L169.092 29.1531H168.951C168.387 29.0122 167.894 29.294 167.753 29.8578C167.682 30.0692 167.753 30.3511 167.823 30.5625C168.246 31.3377 168.88 31.9014 169.656 32.3243C169.796 32.5357 170.008 32.7471 170.29 32.7471C171.206 32.9585 172.122 33.3108 172.968 33.6632C173.461 33.9451 174.025 33.7337 174.307 33.3108C174.447 33.0994 174.447 32.8176 174.377 32.5357C174.095 32.9585 173.531 33.029 173.179 32.8176Z" fill="#FFC4B0"/>
<path d="M173.25 35.777C172.686 34.3676 172.193 33.0286 171.629 31.6192C171.277 31.2669 170.924 30.9145 170.572 30.4917C170.501 30.4917 170.431 30.4917 170.36 30.4917C169.867 30.4917 169.444 30.9145 169.444 31.4783C169.444 31.5488 169.444 31.6897 169.515 31.7602L169.656 32.1125C169.585 32.3944 169.585 32.6763 169.656 32.8877L170.924 35.5655C171.065 35.9884 171.277 36.4112 171.558 36.834L171.84 37.3978C172.404 38.5253 174.095 37.5387 173.532 36.4112L173.25 35.777Z" fill="#FFC4B0"/>
<path d="M185.018 16.6089L184.877 16.8908C184.666 17.3841 184.314 17.8773 184.032 18.3706C183.679 19.5686 183.397 20.7666 183.045 21.9646C182.411 24.2901 182.411 26.968 181.142 29.0116C179.592 31.5485 176.139 31.1257 173.743 30.2096C173.109 29.9982 172.475 29.6459 171.84 29.364C171.558 32.7465 171.558 36.411 172.897 39.5821C175.716 40.5687 178.676 41.062 181.706 40.9211C185.159 40.7801 189.881 39.7231 191.22 36.0586L185.018 16.6089Z" fill="#1FAB89"/>
<path d="M184.666 23.0217C184.102 27.6023 184.666 32.5352 182.763 36.8339C182.129 38.2433 181.354 39.5117 180.297 40.6393L180.156 40.8507C184.243 40.7802 185.793 40.146 185.793 40.146L185.159 19.8506C185.018 20.2029 184.807 21.0486 184.454 22.2466C184.666 22.458 184.736 22.7399 184.666 23.0217Z" fill="#626262"/>
<path d="M161.199 29.8576L167.753 39.1596L172.615 39.512L166.062 29.5757L161.199 29.8576Z" fill="#626262"/>
<path d="M163.031 28.0957L167.612 28.589L174.8 38.5958L172.615 39.5119L166.766 31.4078L161.199 29.8575L163.031 28.0957Z" fill="#606060"/>
<path d="M168.035 36.693H167.683C168.035 36.2702 167.965 35.6359 167.542 35.2836C167.401 35.1426 167.189 35.0722 166.908 35.0722H166.132C166.485 34.7198 166.555 34.2265 166.273 33.8037C165.851 33.1695 164.089 33.099 163.736 33.8037C163.455 34.297 163.595 34.8608 164.089 35.1426L164.3 35.2131C163.877 35.6359 163.877 36.2702 164.3 36.693C164.512 36.9044 164.723 36.9749 165.005 36.9749H165.146C164.793 37.3977 164.934 38.0319 165.357 38.3843C165.498 38.5252 165.78 38.5957 165.991 38.5252C166.696 38.5957 167.401 38.5957 168.106 38.5957C168.669 38.5957 169.092 38.1729 169.092 37.6091C169.092 37.1158 168.669 36.693 168.035 36.693Z" fill="#FFC4B0"/>
<path d="M179.24 110.405C179.662 113.012 179.733 115.69 179.451 118.368C179.381 118.932 179.31 119.566 179.169 120.2L185.934 119.073V110.405H179.24Z" fill="#FFC4B0"/>
<path d="M179.24 114.986C178.817 117.382 177.548 120.694 176.28 121.892C174.729 123.301 166.062 127.952 169.656 130.419C172.333 132.251 186.85 124.992 187.203 123.019C187.485 121.61 186.709 117.17 186.287 114.845C184.243 116.043 181.565 115.831 179.24 114.986Z" fill="#626262"/>
<path d="M187.978 110.757C188.401 103.076 189.458 89.052 189.669 88.3473C189.881 87.3607 193.686 72.703 193.686 72.703C192.629 67.7701 191.713 62.8371 191.079 57.8338C189.881 57.7633 192.488 44.374 191.361 44.0921C189.035 43.5988 186.851 40.3572 184.666 39.3706C182.411 51.9848 175.223 89.052 173.602 108.854C175.223 112.307 182.763 112.871 187.978 110.757Z" fill="#FFB000"/>
<path d="M209.824 99.1296C211.515 101.032 213.418 105.331 214.616 107.516C214.898 108.009 215.179 108.502 215.391 108.995L219.76 105.401L215.32 95.5356L209.824 99.1296Z" fill="#FFC4B0"/>
<path d="M218.351 101.667C217.223 103.499 215.25 104.486 213.136 104.274C213.347 105.754 213.981 108.644 213.277 109.63C212.29 111.11 205.173 117.311 208.978 118.862C211.726 119.989 221.592 111.321 221.451 109.56C221.31 108.291 219.196 103.64 218.351 101.667Z" fill="#626262"/>
<path d="M206.793 104.767C206.864 104.908 207.075 104.979 207.216 104.908C209.542 103.992 211.726 102.865 213.77 101.455C215.814 99.9049 216.73 98.1431 218.351 96.029L217.505 94.6196C213.629 86.7975 206.018 60.7235 205.666 58.8913C205.243 56.7772 203.481 37.7503 203.481 37.7503L186.075 34.5791C186.075 34.5791 186.709 51.21 188.048 65.9383C188.683 68.5457 189.528 71.0826 190.444 73.5491C194.32 83.8377 199.324 96.0995 206.793 104.767Z" fill="#FFB000"/>
<path d="M203.904 61.6396C203.834 60.0893 203.622 58.539 203.27 57.0591C203.27 55.2973 203.129 53.5356 202.847 51.7738C200.945 51.7034 199.042 51.7034 197.139 51.8443C197.139 52.7604 197.139 53.747 197.069 54.6631C196.857 55.3678 196.646 56.0725 196.505 56.7772C196.364 56.8477 196.293 56.9886 196.223 57.1296C195.377 58.8913 194.814 60.8645 194.532 62.8376C194.532 63.4014 195.025 63.8242 195.589 63.8242C195.941 63.8242 196.223 63.6128 196.434 63.3309C196.716 62.6967 196.998 62.0625 197.28 61.3578V64.0356C197.28 64.5994 197.773 65.0222 198.337 65.0222C198.83 65.0927 199.324 64.8108 199.535 64.3175C199.887 64.7403 200.451 64.9517 200.945 64.7403C201.367 64.5289 201.649 64.1766 201.79 63.7537C202.143 63.9652 202.636 63.9652 202.988 63.7537C203.834 63.3309 203.904 62.4148 203.904 61.6396Z" fill="#FFC4B0"/>
<path d="M201.508 21.8943C199.888 18.3003 193.827 15.552 191.502 14.5654C190.797 14.5654 190.022 14.6359 189.317 14.7064L188.401 14.8473L187.767 14.9882C187.414 15.0587 187.133 15.1997 186.78 15.2701C186.357 15.4815 185.935 15.7634 185.441 16.0453C185.371 16.1158 185.3 16.1158 185.23 16.1158C184.878 16.3977 184.525 16.75 184.243 17.1024L184.173 17.1728C183.961 18.0889 183.82 19.0755 183.82 19.9916C183.75 22.74 183.75 25.5588 183.961 28.3071C184.173 31.9715 184.525 35.636 184.737 39.3004L185.089 41.0622C188.824 44.0924 195.378 45.0085 195.941 44.8676C196.505 44.7266 195.941 50.0119 195.589 53.6763C196.928 54.0287 198.267 54.3106 199.606 54.4515C200.592 54.5924 201.579 54.6629 202.565 54.7334H204.327C206.935 39.3004 203.623 26.3339 201.508 21.8943Z" fill="#1FAB89"/>
<path d="M189.388 17.3845C189.951 17.7369 190.586 17.8778 191.29 17.9483C193.404 18.0892 194.673 15.8342 195.448 14.2134C196.505 12.3107 197.069 10.267 197.139 8.08246C197.139 7.7301 197.139 7.37775 196.998 7.0254C196.223 4.62942 187.485 2.79719 187.062 7.58916C186.78 10.408 186.569 15.6228 189.388 17.3845Z" fill="#FFC4B0"/>
<path d="M196.153 10.6196C195.519 10.6196 194.955 10.831 194.532 11.2539C194.039 11.6767 193.757 12.2404 193.686 12.8747C193.616 13.1566 193.757 13.368 193.968 13.5089C194.18 13.8613 194.602 14.0022 194.955 13.7908H195.025C195.589 13.4384 196.153 12.9451 196.505 12.3814C196.928 11.7472 196.998 10.831 196.153 10.6196Z" fill="#FFC4B0"/>
<path d="M199.394 4.7702C199.253 3.71315 198.619 2.79704 197.773 2.23328C196.787 1.59905 195.589 1.38764 194.461 1.73999C194.038 1.03529 193.404 0.471523 192.629 0.189642C191.149 -0.303648 189.599 0.189645 188.612 1.38764C187.344 1.2467 186.146 1.59905 185.089 2.23328C184.032 3.00845 183.327 4.27691 183.256 5.61584C183.256 5.82725 183.256 6.03866 183.256 6.1796C183.186 6.53195 183.186 6.8843 183.256 7.23665C183.609 8.9984 185.159 10.2669 186.991 10.2669C186.78 8.99841 186.991 6.53195 188.471 7.16618C188.542 7.16618 188.612 7.16618 188.683 7.23665C189.599 7.65947 188.824 8.92794 190.163 9.13935C191.501 9.35076 192.277 8.29371 193.545 9.4917C194.814 10.6897 192.065 12.0286 194.955 14.2837C194.955 14.4246 194.955 14.5655 195.025 14.777C195.025 14.5655 196.152 13.5085 196.364 13.3676C196.857 12.8038 197.28 12.24 197.703 11.6763C198.478 10.7602 199.042 9.70311 199.465 8.50512C199.676 7.23665 199.676 5.96819 199.394 4.7702Z" fill="#626262"/>
<path d="M195.871 12.3106C196.012 11.465 195.377 10.9717 194.673 11.324C193.686 11.8878 193.052 12.9448 192.981 14.1428C192.981 14.3542 193.052 14.5656 193.193 14.7771C193.193 14.8475 193.263 14.918 193.334 14.918C193.616 15.1999 194.109 15.1999 194.391 14.918L194.461 14.8475C195.236 14.2133 195.73 13.2972 195.871 12.3106Z" fill="#FFC4B0"/>
<path d="M187.273 13.7199C187.133 13.7199 186.921 13.6495 186.78 13.579C185.23 12.9447 185.3 10.2669 185.3 10.1259V9.70312L185.723 9.84407C186.921 10.2669 188.331 10.7602 188.542 10.8306L188.824 10.9011V11.183C188.824 11.3944 188.683 13.0857 187.767 13.579C187.626 13.6495 187.414 13.7199 187.273 13.7199ZM185.935 10.6192C186.005 11.3944 186.216 12.6629 186.992 13.0152C187.133 13.0857 187.273 13.0857 187.414 13.0152C187.837 12.5924 188.049 11.9582 188.119 11.3944C187.626 11.2535 186.569 10.8306 185.935 10.6192Z" fill="#626262"/>
<path d="M191.29 15.1293C191.149 15.1293 190.938 15.1293 190.797 15.0588C190.304 14.9883 189.81 14.636 189.599 14.2132C189.035 13.1561 189.528 11.6058 189.528 11.5353L189.599 11.2534L193.122 12.4514V12.6628C193.122 13.438 192.84 14.2132 192.277 14.7769C191.995 14.9883 191.642 15.1293 191.29 15.1293ZM190.022 12.0286C189.81 12.6628 189.881 13.297 190.092 13.9313C190.233 14.2132 190.585 14.4246 190.867 14.495C191.22 14.5655 191.572 14.5655 191.854 14.3541C192.206 14.0017 192.418 13.438 192.418 12.9447L190.022 12.0286Z" fill="#626262"/>
<path d="M194.179 11.2536L192.77 12.5221C192.629 12.663 192.84 12.9449 193.052 12.804L194.461 11.5355C194.673 11.3241 194.391 11.1127 194.179 11.2536Z" fill="#626262"/>
<path d="M188.753 14.7061C188.542 14.7061 188.189 14.6356 188.189 14.3538C188.26 14.2128 188.33 14.0014 188.401 13.8605C188.542 13.5786 188.683 13.2262 188.824 12.9444C188.894 12.8739 188.824 12.733 188.753 12.6625C188.683 12.592 188.542 12.6625 188.471 12.733C188.33 13.0148 188.119 13.3672 188.048 13.6491C187.908 13.8605 187.837 14.1424 187.767 14.4242C187.767 14.8471 188.401 15.0585 188.753 15.0585C189.106 15.0585 188.965 14.7766 188.753 14.7061Z" fill="#626262"/>
<path d="M189.951 11.4648C189.387 11.3239 188.894 11.1829 188.401 11.042C188.189 10.9715 188.119 11.3239 188.33 11.3943C188.824 11.5353 189.387 11.7467 189.881 11.8172C190.092 11.8876 190.162 11.4648 189.951 11.4648Z" fill="#626262"/>
<path d="M192.277 78.2705C192.277 78.2705 189.387 68.0523 187.696 62.7671L189.176 93.7739C189.176 93.7739 190.867 82.2873 192.277 78.2705Z" fill="#626262"/>
<path d="M199.253 19.0052C199.253 19.0052 193.616 21.6126 196.857 38.6664C196.857 38.6664 191.783 29.9986 192.065 24.7838C192.347 19.569 194.743 16.4683 195.941 16.1864C197.139 15.9045 199.887 17.8777 199.253 19.0052Z" fill="#626262"/>
<path d="M183.961 17.6665C182.904 21.9652 183.961 26.3343 183.891 28.8008C183.891 26.1229 184.173 23.445 184.736 20.8376C185.23 18.8645 185.934 16.3275 187.626 15.0591C187.696 15.1296 184.525 15.5524 183.961 17.6665Z" fill="#1FAB89"/>
<path d="M160.424 25.1362C161.411 23.4449 163.384 23.4449 165.005 24.2201C165.71 24.6429 166.344 23.5154 165.639 23.0926C163.455 21.8946 160.706 22.1765 159.297 24.4315C159.085 24.7134 159.226 25.1362 159.508 25.3476C159.79 25.559 160.283 25.4181 160.424 25.1362Z" fill="#F15A24"/>
<path d="M158.733 23.6562C159.297 20.767 163.595 20.3441 165.569 22.0354C166.203 22.5992 167.119 21.6831 166.485 21.1193C163.877 18.7938 158.24 19.3576 157.465 23.3039C157.324 24.0791 158.592 24.4314 158.733 23.6562Z" fill="#F15A24"/>
<path d="M290.089 77.3539C286.213 74.3237 281.139 73.3371 276.418 74.817C258.941 79.6794 258.73 104.203 258.73 104.203C258.73 104.203 252.388 99.552 243.156 105.824C231.74 113.646 234.206 133.871 234.206 133.871L237.8 135.985L304.535 96.5218C304.606 96.5218 300.307 81.5821 290.089 77.3539Z" fill="#68E1FD"/>
<path opacity="0.1" d="M290.089 77.3539C286.213 74.3237 281.139 73.3371 276.418 74.817C258.941 79.6794 258.73 104.203 258.73 104.203C258.73 104.203 252.388 99.552 243.156 105.824C231.74 113.646 234.206 133.871 234.206 133.871L237.8 135.985L304.535 96.5218C304.606 96.5218 300.307 81.5821 290.089 77.3539Z" fill="#626262"/>
<path d="M237.871 136.056L304.606 96.5929C304.606 96.5929 297.488 72.0694 280.012 77.0023C262.535 81.9352 262.324 106.318 262.324 106.318C262.324 106.318 255.982 101.667 246.75 107.939C235.404 115.831 237.871 136.056 237.871 136.056Z" fill="#68E1FD"/>
<path d="M138.156 60.9349C136.605 59.7369 134.632 59.3846 132.8 59.9483C125.894 61.851 125.823 71.5759 125.823 71.5759C125.823 71.5759 123.357 69.7437 119.693 72.2101C115.182 75.3108 116.169 83.2739 116.169 83.2739L117.578 84.1196L143.934 68.5457C143.864 68.5457 142.172 62.6262 138.156 60.9349Z" fill="#68E1FD"/>
<path opacity="0.1" d="M138.156 60.9349C136.605 59.7369 134.632 59.3846 132.8 59.9483C125.894 61.851 125.823 71.5759 125.823 71.5759C125.823 71.5759 123.357 69.7437 119.693 72.2101C115.182 75.3108 116.169 83.2739 116.169 83.2739L117.578 84.1196L143.934 68.5457C143.864 68.5457 142.172 62.6262 138.156 60.9349Z" fill="#626262"/>
<path d="M117.508 84.0486L143.863 68.4747C143.863 68.4747 141.045 58.8203 134.139 60.723C127.233 62.6257 127.162 72.3505 127.162 72.3505C127.162 72.3505 124.696 70.5183 121.031 72.9848C116.521 76.0854 117.508 84.0486 117.508 84.0486Z" fill="#68E1FD"/>
<path d="M43.0209 74.1827C40.0612 71.8572 36.1149 71.1525 32.5209 72.2095C19.1316 75.9444 18.9202 94.76 18.9202 94.76C18.9202 94.76 14.0577 91.166 7.01071 96.0284C-1.72758 102.018 0.175112 117.522 0.175112 117.522L2.92345 119.143L54.1552 88.8405C54.1552 88.8405 50.8431 77.4243 43.0209 74.1827Z" fill="#68E1FD"/>
<path opacity="0.1" d="M43.0209 74.1827C40.0612 71.8572 36.1149 71.1525 32.5209 72.2095C19.1316 75.9444 18.9202 94.76 18.9202 94.76C18.9202 94.76 14.0577 91.166 7.01071 96.0284C-1.72758 102.018 0.175112 117.522 0.175112 117.522L2.92345 119.143L54.1552 88.8405C54.1552 88.8405 50.8431 77.4243 43.0209 74.1827Z" fill="#626262"/>
<path d="M2.9234 119.143L54.1552 88.841C54.1552 88.841 48.729 70.0255 35.3396 73.8309C21.9503 77.6363 21.7389 96.3813 21.7389 96.3813C21.7389 96.3813 16.8765 92.7874 9.759 97.6498C1.02071 103.64 2.9234 119.143 2.9234 119.143Z" fill="#68E1FD"/>
<path d="M70.6453 172.56C67.8969 169.529 65.2895 166.358 62.8231 163.117C58.5949 157.409 54.0848 150.996 52.323 144.019C50.068 135.211 51.125 124.358 59.0177 118.65C68.3197 111.955 83.7527 115.549 88.5447 126.19C94.746 139.932 85.2326 153.039 77.6218 163.751C75.3667 166.922 72.9708 169.811 70.6453 172.56Z" fill="#F15A24"/>
<path d="M70.9978 146.626C76.8357 146.626 81.5683 141.894 81.5683 136.056C81.5683 130.218 76.8357 125.485 70.9978 125.485C65.1598 125.485 60.4272 130.218 60.4272 136.056C60.4272 141.894 65.1598 146.626 70.9978 146.626Z" fill="white"/>
</svg>
