<svg width="305" height="240" viewBox="0 0 305 240" fill="none" xmlns="http://www.w3.org/2000/svg">
<path d="M56.4101 194.546C56.5511 194.123 56.7625 193.701 56.9034 193.278C57.2558 192.432 57.5377 191.586 57.8195 190.741C58.8766 187.711 59.7927 184.68 60.5679 181.58C61.4135 178.479 61.9773 175.378 62.3296 172.207C62.3296 172.419 62.1182 173.617 62.2592 172.771L62.3296 172.137C62.4001 171.784 62.4001 171.432 62.4706 171.15C62.541 170.375 62.6115 169.6 62.682 168.825C62.8229 167.274 62.8934 165.724 62.9639 164.174C63.0343 161.002 63.0343 157.831 62.8229 154.59C62.7525 153.039 62.6115 151.489 62.4001 149.939C62.4001 149.586 62.3296 149.304 62.2592 148.952V148.67C62.1182 147.895 62.0478 147.12 61.9068 146.345C61.4135 143.526 60.8498 140.707 60.0746 137.959L19.2019 161.566C15.608 163.68 14.3395 168.331 16.4536 171.925C17.0878 173.053 18.0744 174.039 19.2019 174.674L55.8464 195.885L56.3397 194.828L56.4101 194.546Z" fill="#3F7D58"/>
<path d="M145.414 127.106L152.25 131.053C153.448 131.757 154.646 132.462 155.914 133.167L156.337 133.378L157.747 132.603L160.988 130.771C163.173 129.502 165.357 128.234 167.612 126.966C172.052 124.358 176.492 121.751 180.931 119.073C195.025 110.616 208.978 101.808 222.72 92.6466L187.837 72.5626C183.257 69.8847 177.619 69.8847 173.039 72.5626L112.082 107.868L131.673 119.143L145.414 127.106Z" fill="#3F7D58"/>
<path d="M158.803 208.147C158.098 208.218 157.464 208.147 156.83 207.936C150.417 205.822 144.075 203.707 137.662 201.593C116.028 194.335 94.5344 186.654 73.1819 178.691C71.7725 186.654 69.447 194.405 66.0645 201.805L126.951 237.04C131.884 239.859 137.873 239.859 142.806 237.04L161.34 226.258C160.565 221.043 159.79 215.828 159.085 210.684C159.015 209.768 158.944 208.993 158.803 208.147Z" fill="#3F7D58"/>
<path d="M74.5912 166.711C80.5107 168.966 86.5006 171.15 92.4906 173.335C113.984 181.157 135.548 188.627 157.253 195.744C155.139 178.69 153.518 161.566 152.249 144.372C151.826 144.231 151.474 144.019 151.051 143.808C148.655 142.68 146.471 141.271 144.145 139.932L136.957 135.774L122.934 127.741L100.172 114.704L70.5039 131.898C70.9972 133.378 71.42 134.858 71.7724 136.338C74.2388 146.274 75.1549 156.492 74.5912 166.711Z" fill="#3F7D58"/>
<path d="M295.727 134.717L233.925 99.1296C225.68 104.626 217.364 110.053 209.049 115.408C205.032 117.945 200.945 120.482 196.857 123.019C201.015 125.556 205.173 128.163 209.331 130.7C227.935 142.257 246.398 154.026 264.72 166.006L295.727 147.965C299.391 145.851 300.66 141.13 298.546 137.465C297.841 136.408 296.854 135.422 295.727 134.717Z" fill="#3F7D58"/>
<path d="M185.582 129.925L182.411 131.828C177.901 134.506 173.461 137.113 168.88 139.721C167.189 140.707 165.568 141.694 163.877 142.61C164.3 148.459 164.793 154.378 165.286 160.227C166.273 171.573 167.471 182.848 168.81 194.124C169.162 196.942 169.515 199.761 169.867 202.509C170.078 203.989 170.219 205.469 170.431 206.949V207.09L170.572 207.865L170.853 209.979C171.347 213.291 171.77 216.604 172.263 219.916L253.374 172.701L250.978 171.15C229.344 157.127 207.568 143.385 185.582 129.925Z" fill="#3F7D58"/>
<path d="M196.857 123.019C200.944 120.482 205.031 117.945 209.048 115.408C217.434 110.123 225.679 104.697 233.924 99.1296L222.578 92.6464C208.837 101.737 194.954 110.546 180.79 119.073C176.35 121.751 171.91 124.358 167.471 126.965C165.286 128.234 163.102 129.502 160.847 130.771L157.605 132.603L156.266 133.378L155.843 133.167C154.645 132.462 153.377 131.757 152.179 131.053L145.343 127.106L131.461 119.143L111.87 107.868L100.101 114.704L122.793 127.74L136.816 135.774L144.004 139.932C146.259 141.271 148.514 142.68 150.91 143.808C151.333 144.019 151.686 144.16 152.108 144.371C153.377 161.566 155.068 178.69 157.112 195.744C135.407 188.627 113.773 181.157 92.3497 173.335C86.3597 171.15 80.4402 168.965 74.4503 166.71C75.0845 156.492 74.0979 146.274 71.6315 136.338C71.2791 134.858 70.8563 133.378 70.363 131.898L59.863 137.959C60.5677 140.707 61.1314 143.455 61.6247 146.274C61.7657 147.049 61.9066 147.824 61.9771 148.6V148.882C61.9771 149.234 62.0475 149.516 62.118 149.868C62.3294 151.418 62.4704 152.969 62.5408 154.519C62.7522 157.69 62.8227 160.861 62.6818 164.103C62.6113 165.653 62.5408 167.204 62.3999 168.754C62.3294 169.529 62.259 170.304 62.1885 171.08C62.1885 171.432 62.118 171.714 62.0475 172.066L61.9771 172.771C61.9066 173.617 62.0475 172.419 62.0475 172.207C61.6952 175.378 61.1314 178.479 60.2858 181.58C59.5106 184.68 58.5945 187.711 57.5375 190.741C57.2556 191.586 56.9032 192.432 56.6213 193.278C56.4804 193.7 56.269 194.123 56.1281 194.546L55.9871 194.828L55.6348 195.885L65.8529 201.805C69.165 194.405 71.561 186.653 72.9704 178.69C94.3228 186.653 115.816 194.335 137.451 201.593C143.793 203.707 150.206 205.821 156.618 207.935C157.253 208.147 157.957 208.217 158.592 208.147C158.662 208.922 158.803 209.768 158.944 210.543C159.649 215.758 160.424 220.972 161.199 226.187L172.051 219.845C171.558 216.533 171.135 213.221 170.642 209.909L170.36 207.795L170.219 207.019V206.949C170.008 205.469 169.867 203.989 169.655 202.509C169.303 199.69 168.951 196.942 168.598 194.123C167.259 182.848 166.061 171.573 165.075 160.227C164.582 154.378 164.088 148.459 163.665 142.61C165.357 141.694 167.048 140.637 168.669 139.72C173.179 137.113 177.689 134.506 182.199 131.828L185.37 129.925C207.357 143.385 229.132 157.127 250.766 171.15L253.162 172.7L264.579 166.076C246.256 154.096 227.793 142.328 209.189 130.771C205.172 128.163 201.015 125.626 196.857 123.019Z" fill="#F8E6D2"/>
<path opacity="0.46" d="M70.4338 175.096C79.6578 175.096 87.1353 173.55 87.1353 171.643C87.1353 169.736 79.6578 168.19 70.4338 168.19C61.2099 168.19 53.7324 169.736 53.7324 171.643C53.7324 173.55 61.2099 175.096 70.4338 175.096Z" fill="#8EC62C"/>
<path opacity="0.46" d="M144.075 142.962L180.861 119.002L215.391 108.996L221.451 111.603L161.763 152.828L144.075 142.962Z" fill="#8EC62C"/>
<path d="M162.186 26.8274C162.75 26.3341 163.454 26.1932 164.159 26.4046C164.511 26.4751 164.864 26.2637 164.934 25.9818C165.005 25.6294 164.793 25.2771 164.511 25.2066C163.384 24.8543 162.186 25.1362 161.27 25.9113C160.776 26.5456 161.622 27.4617 162.186 26.8274Z" fill="#F15A24"/>
<path d="M206.088 31.4786C206.088 31.2672 207.991 33.4517 208.343 35.4954C208.696 37.539 207.92 43.4585 207.216 44.1632C206.511 44.8679 203.34 45.7135 203.34 45.7135" fill="#333333"/>
<path d="M192.064 16.3273C190.796 20.9078 189.739 25.4884 188.611 30.0689C188.259 31.1965 188.118 32.3945 188.259 33.5925C188.611 35.0723 189.387 36.4817 190.514 37.5388C193.051 40.4281 195.729 43.1764 198.689 45.7133C199.323 46.3475 200.098 46.8408 201.014 47.1227C201.86 47.2637 202.705 47.1932 203.481 46.9818C204.608 46.9113 205.524 45.9952 205.454 44.8677C205.454 44.7972 205.454 44.7267 205.454 44.6563C206.088 38.8072 206.088 32.9582 206.229 27.0387C206.299 25.0656 206.37 23.0219 205.524 21.1897C204.679 19.428 203.199 18.0186 201.367 17.1729C198.336 15.7635 195.377 14.3541 191.924 13.6494" fill="#333333"/>
<path d="M173.179 32.8176C171.558 31.9719 170.713 30.2806 169.162 29.2236L169.092 29.1531H168.951C168.387 29.0122 167.894 29.294 167.753 29.8578C167.682 30.0692 167.753 30.3511 167.823 30.5625C168.246 31.3377 168.88 31.9014 169.656 32.3243C169.796 32.5357 170.008 32.7471 170.29 32.7471C171.206 32.9585 172.122 33.3108 172.968 33.6632C173.461 33.9451 174.025 33.7337 174.307 33.3108C174.447 33.0994 174.447 32.8176 174.377 32.5357C174.095 32.9585 173.531 33.029 173.179 32.8176Z" fill="#FFC4B0"/>
<path d="M173.249 35.7772C172.685 34.3678 172.192 33.0289 171.628 31.6195C171.276 31.2671 170.923 30.9148 170.571 30.4919C170.5 30.4919 170.43 30.4919 170.359 30.4919C169.866 30.4919 169.443 30.9148 169.443 31.4785C169.443 31.549 169.443 31.6899 169.514 31.7604L169.655 32.1128C169.584 32.3946 169.584 32.6765 169.655 32.8879L170.923 35.5658C171.064 35.9886 171.276 36.4114 171.557 36.8343L171.839 37.398C172.403 38.5255 174.094 37.539 173.531 36.4114L173.249 35.7772Z" fill="#FFC4B0"/>
<path d="M185.018 16.609L184.877 16.8909C184.665 17.3842 184.313 17.8775 184.031 18.3708C183.679 19.5688 183.397 20.7667 183.045 21.9647C182.41 24.2902 182.41 26.9681 181.142 29.0117C179.592 31.5487 176.139 31.1258 173.743 30.2097C173.108 29.9983 172.474 29.646 171.84 29.3641C171.558 32.7467 171.558 36.4111 172.897 39.5823C175.716 40.5688 178.675 41.0621 181.706 40.9212C185.159 40.7802 189.88 39.7232 191.219 36.0588L185.018 16.609Z" fill="#3F7D58"/>
<path d="M184.665 23.0217C184.102 27.6023 184.665 32.5352 182.763 36.8339C182.128 38.2433 181.353 39.5117 180.296 40.6393L180.155 40.8507C184.243 40.7802 185.793 40.146 185.793 40.146L185.159 19.8506C185.018 20.2029 184.806 21.0486 184.454 22.2466C184.665 22.458 184.736 22.7399 184.665 23.0217Z" fill="#333333"/>
<path d="M161.199 29.8574L167.753 39.1595L172.615 39.5118L166.062 29.5756L161.199 29.8574Z" fill="#333333"/>
<path d="M163.031 28.0958L167.612 28.5891L174.8 38.5959L172.615 39.512L166.766 31.4079L161.199 29.8576L163.031 28.0958Z" fill="#606060"/>
<path d="M168.034 36.693H167.682C168.034 36.2702 167.964 35.6359 167.541 35.2836C167.4 35.1426 167.188 35.0722 166.907 35.0722H166.131C166.484 34.7198 166.554 34.2265 166.272 33.8037C165.85 33.1695 164.088 33.099 163.735 33.8037C163.454 34.297 163.595 34.8608 164.088 35.1426L164.299 35.2131C163.876 35.6359 163.876 36.2702 164.299 36.693C164.511 36.9044 164.722 36.9749 165.004 36.9749H165.145C164.793 37.3977 164.933 38.0319 165.356 38.3843C165.497 38.5252 165.779 38.5957 165.99 38.5252C166.695 38.5957 167.4 38.5957 168.105 38.5957C168.668 38.5957 169.091 38.1729 169.091 37.6091C169.091 37.1158 168.668 36.693 168.034 36.693Z" fill="#FFC4B0"/>
<path d="M179.239 110.405C179.662 113.012 179.733 115.69 179.451 118.368C179.38 118.932 179.31 119.566 179.169 120.2L185.934 119.072V110.405H179.239Z" fill="#FFC4B0"/>
<path d="M179.239 114.986C178.816 117.382 177.548 120.694 176.279 121.892C174.729 123.301 166.061 127.952 169.655 130.418C172.333 132.251 186.85 124.992 187.202 123.019C187.484 121.61 186.709 117.17 186.286 114.845C184.242 116.043 181.565 115.831 179.239 114.986Z" fill="#333333"/>
<path d="M187.977 110.757C188.4 103.076 189.457 89.0523 189.669 88.3476C189.88 87.361 193.686 72.7032 193.686 72.7032C192.628 67.7703 191.712 62.8374 191.078 57.834C189.88 57.7635 192.488 44.3742 191.36 44.0923C189.035 43.5991 186.85 40.3574 184.665 39.3708C182.41 51.985 175.222 89.0523 173.602 108.854C175.222 112.307 182.763 112.871 187.977 110.757Z" fill="#EF9651"/>
<path d="M209.823 99.1296C211.515 101.032 213.417 105.331 214.615 107.516C214.897 108.009 215.179 108.502 215.39 108.995L219.76 105.401L215.32 95.5356L209.823 99.1296Z" fill="#FFC4B0"/>
<path d="M218.35 101.667C217.223 103.499 215.249 104.486 213.135 104.274C213.347 105.754 213.981 108.643 213.276 109.63C212.29 111.11 205.172 117.311 208.978 118.861C211.726 119.989 221.592 111.321 221.451 109.559C221.31 108.291 219.196 103.64 218.35 101.667Z" fill="#333333"/>
<path d="M206.793 104.767C206.864 104.908 207.075 104.979 207.216 104.908C209.542 103.992 211.726 102.865 213.77 101.455C215.814 99.9049 216.73 98.1431 218.351 96.029L217.505 94.6196C213.629 86.7975 206.018 60.7235 205.666 58.8913C205.243 56.7772 203.481 37.7503 203.481 37.7503L186.075 34.5791C186.075 34.5791 186.709 51.21 188.048 65.9383C188.683 68.5457 189.528 71.0826 190.444 73.5491C194.32 83.8377 199.324 96.0995 206.793 104.767Z" fill="#EF9651"/>
<path d="M203.904 61.6398C203.833 60.0894 203.622 58.5391 203.27 57.0592C203.27 55.2975 203.129 53.5357 202.847 51.774C200.944 51.7035 199.041 51.7035 197.139 51.8444C197.139 52.7605 197.139 53.7471 197.068 54.6632C196.857 55.3679 196.645 56.0726 196.504 56.7773C196.363 56.8478 196.293 56.9887 196.223 57.1297C195.377 58.8914 194.813 60.8646 194.531 62.8378C194.531 63.4015 195.025 63.8243 195.588 63.8243C195.941 63.8243 196.223 63.6129 196.434 63.331C196.716 62.6968 196.998 62.0626 197.28 61.3579V64.0357C197.28 64.5995 197.773 65.0223 198.337 65.0223C198.83 65.0928 199.323 64.8109 199.535 64.3176C199.887 64.7405 200.451 64.9519 200.944 64.7404C201.367 64.529 201.649 64.1767 201.79 63.7539C202.142 63.9653 202.635 63.9653 202.988 63.7539C203.833 63.331 203.904 62.4149 203.904 61.6398Z" fill="#FFC4B0"/>
<path d="M201.507 21.8946C199.887 18.3006 193.826 15.5523 191.501 14.5657C190.796 14.5657 190.021 14.6361 189.316 14.7066L188.4 14.8476L187.766 14.9885C187.413 15.059 187.132 15.1999 186.779 15.2704C186.356 15.4818 185.934 15.7637 185.44 16.0455C185.37 16.116 185.299 16.116 185.229 16.116C184.877 16.3979 184.524 16.7502 184.242 17.1026L184.172 17.1731C183.96 18.0892 183.819 19.0758 183.819 19.9919C183.749 22.7402 183.749 25.559 183.96 28.3073C184.172 31.9718 184.524 35.6362 184.736 39.3007L185.088 41.0624C188.823 44.0926 195.377 45.0088 195.94 44.8678C196.504 44.7269 195.94 50.0121 195.588 53.6766C196.927 54.0289 198.266 54.3108 199.605 54.4518C200.591 54.5927 201.578 54.6632 202.565 54.7336H204.326C206.934 39.3007 203.622 26.3342 201.507 21.8946Z" fill="#3F7D58"/>
<path d="M189.387 17.3845C189.951 17.7369 190.585 17.8778 191.29 17.9483C193.404 18.0892 194.672 15.8342 195.448 14.2134C196.505 12.3107 197.068 10.267 197.139 8.08246C197.139 7.7301 197.139 7.37775 196.998 7.0254C196.223 4.62942 187.484 2.79719 187.062 7.58916C186.78 10.408 186.568 15.6228 189.387 17.3845Z" fill="#FFC4B0"/>
<path d="M196.152 10.6195C195.518 10.6195 194.954 10.8309 194.531 11.2537C194.038 11.6766 193.756 12.2403 193.685 12.8745C193.615 13.1564 193.756 13.3678 193.967 13.5088C194.179 13.8611 194.601 14.0021 194.954 13.7907H195.024C195.588 13.4383 196.152 12.945 196.504 12.3813C196.927 11.747 196.997 10.8309 196.152 10.6195Z" fill="#FFC4B0"/>
<path d="M199.394 4.7702C199.253 3.71315 198.618 2.79704 197.773 2.23328C196.786 1.59905 195.588 1.38764 194.461 1.73999C194.038 1.03529 193.404 0.471523 192.629 0.189642C191.149 -0.303648 189.598 0.189645 188.612 1.38764C187.343 1.2467 186.145 1.59905 185.088 2.23328C184.031 3.00845 183.326 4.27691 183.256 5.61584C183.256 5.82725 183.256 6.03866 183.256 6.1796C183.186 6.53195 183.186 6.8843 183.256 7.23665C183.608 8.9984 185.159 10.2669 186.991 10.2669C186.779 8.99841 186.991 6.53195 188.471 7.16618C188.541 7.16618 188.612 7.16618 188.682 7.23665C189.598 7.65947 188.823 8.92794 190.162 9.13935C191.501 9.35076 192.276 8.29371 193.545 9.4917C194.813 10.6897 192.065 12.0286 194.954 14.2837C194.954 14.4246 194.954 14.5655 195.024 14.777C195.024 14.5655 196.152 13.5085 196.363 13.3676C196.857 12.8038 197.28 12.24 197.702 11.6763C198.478 10.7602 199.041 9.70311 199.464 8.50512C199.676 7.23665 199.676 5.96819 199.394 4.7702Z" fill="#333333"/>
<path d="M195.87 12.3107C196.011 11.4651 195.376 10.9718 194.672 11.3241C193.685 11.8879 193.051 12.945 192.98 14.1429C192.98 14.3544 193.051 14.5658 193.192 14.7772C193.192 14.8476 193.262 14.9181 193.333 14.9181C193.615 15.2 194.108 15.2 194.39 14.9181L194.46 14.8476C195.235 14.2134 195.729 13.2973 195.87 12.3107Z" fill="#FFC4B0"/>
<path d="M187.272 13.7199C187.132 13.7199 186.92 13.6495 186.779 13.579C185.229 12.9447 185.299 10.2669 185.299 10.1259V9.70312L185.722 9.84407C186.92 10.2669 188.33 10.7602 188.541 10.8306L188.823 10.9011V11.183C188.823 11.3944 188.682 13.0857 187.766 13.579C187.625 13.6495 187.413 13.7199 187.272 13.7199ZM185.934 10.6192C186.004 11.3944 186.215 12.6629 186.991 13.0152C187.132 13.0857 187.272 13.0857 187.413 13.0152C187.836 12.5924 188.048 11.9582 188.118 11.3944C187.625 11.2535 186.568 10.8306 185.934 10.6192Z" fill="#333333"/>
<path d="M191.29 15.129C191.149 15.129 190.937 15.129 190.796 15.0586C190.303 14.9881 189.81 14.6357 189.598 14.2129C189.035 13.1559 189.528 11.6055 189.528 11.535L189.598 11.2532L193.122 12.4512V12.6626C193.122 13.4377 192.84 14.2129 192.276 14.7767C191.994 14.9881 191.642 15.129 191.29 15.129ZM190.021 12.0283C189.81 12.6626 189.88 13.2968 190.092 13.931C190.233 14.2129 190.585 14.4243 190.867 14.4948C191.219 14.5653 191.572 14.5653 191.853 14.3539C192.206 14.0015 192.417 13.4377 192.417 12.9445L190.021 12.0283Z" fill="#333333"/>
<path d="M194.179 11.2536L192.769 12.5221C192.628 12.663 192.84 12.9449 193.051 12.804L194.461 11.5355C194.672 11.3241 194.39 11.1127 194.179 11.2536Z" fill="#333333"/>
<path d="M188.752 14.7062C188.541 14.7062 188.188 14.6358 188.188 14.3539C188.259 14.213 188.329 14.0015 188.4 13.8606C188.541 13.5787 188.682 13.2264 188.823 12.9445C188.893 12.874 188.823 12.7331 188.752 12.6626C188.682 12.5921 188.541 12.6626 188.47 12.7331C188.329 13.015 188.118 13.3673 188.048 13.6492C187.907 13.8606 187.836 14.1425 187.766 14.4244C187.766 14.8472 188.4 15.0586 188.752 15.0586C189.105 15.0586 188.964 14.7767 188.752 14.7062Z" fill="#333333"/>
<path d="M189.951 11.4648C189.387 11.3239 188.894 11.1829 188.4 11.042C188.189 10.9715 188.118 11.3239 188.33 11.3943C188.823 11.5353 189.387 11.7467 189.88 11.8172C190.092 11.8876 190.162 11.4648 189.951 11.4648Z" fill="#333333"/>
<path d="M192.276 78.2703C192.276 78.2703 189.387 68.0521 187.695 62.7668L189.175 93.7737C189.175 93.7737 190.866 82.2871 192.276 78.2703Z" fill="#333333"/>
<path d="M199.253 19.0053C199.253 19.0053 193.615 21.6127 196.857 38.6665C196.857 38.6665 191.783 29.9987 192.065 24.7839C192.347 19.5691 194.743 16.4684 195.941 16.1865C197.139 15.9047 199.887 17.8778 199.253 19.0053Z" fill="#333333"/>
<path d="M183.961 17.6664C182.904 21.965 183.961 26.3342 183.89 28.8006C183.89 26.1228 184.172 23.4449 184.736 20.8375C185.229 18.8643 185.934 16.3274 187.625 15.059C187.696 15.1294 184.524 15.5523 183.961 17.6664Z" fill="#3F7D58"/>
<path d="M160.424 25.1361C161.41 23.4448 163.383 23.4448 165.004 24.22C165.709 24.6428 166.343 23.5153 165.638 23.0925C163.454 21.8945 160.706 22.1764 159.296 24.4314C159.085 24.7133 159.226 25.1361 159.508 25.3475C159.789 25.5589 160.283 25.418 160.424 25.1361Z" fill="#F15A24"/>
<path d="M158.733 23.6562C159.296 20.767 163.595 20.3441 165.568 22.0354C166.202 22.5992 167.118 21.6831 166.484 21.1193C163.877 18.7938 158.239 19.3576 157.464 23.3039C157.323 24.0791 158.592 24.4314 158.733 23.6562Z" fill="#F15A24"/>
<path d="M290.089 77.354C286.213 74.3238 281.139 73.3372 276.418 74.8171C258.941 79.6795 258.73 104.203 258.73 104.203C258.73 104.203 252.387 99.5521 243.156 105.824C231.74 113.646 234.206 133.871 234.206 133.871L237.8 135.985L304.535 96.5219C304.606 96.5219 300.307 81.5822 290.089 77.354Z" fill="#68E1FD"/>
<path opacity="0.1" d="M290.089 77.354C286.213 74.3238 281.139 73.3372 276.418 74.8171C258.941 79.6795 258.73 104.203 258.73 104.203C258.73 104.203 252.387 99.5521 243.156 105.824C231.74 113.646 234.206 133.871 234.206 133.871L237.8 135.985L304.535 96.5219C304.606 96.5219 300.307 81.5822 290.089 77.354Z" fill="#333333"/>
<path d="M237.871 136.056L304.606 96.5927C304.606 96.5927 297.489 72.0691 280.012 77.002C262.536 81.9349 262.324 106.318 262.324 106.318C262.324 106.318 255.982 101.667 246.75 107.938C235.405 115.831 237.871 136.056 237.871 136.056Z" fill="#68E1FD"/>
<path d="M138.155 60.9347C136.605 59.7367 134.632 59.3843 132.799 59.9481C125.893 61.8508 125.823 71.5756 125.823 71.5756C125.823 71.5756 123.356 69.7434 119.692 72.2099C115.182 75.3106 116.169 83.2737 116.169 83.2737L117.578 84.1193L143.934 68.5454C143.863 68.5454 142.172 62.6259 138.155 60.9347Z" fill="#68E1FD"/>
<path opacity="0.1" d="M138.155 60.9347C136.605 59.7367 134.632 59.3843 132.799 59.9481C125.893 61.8508 125.823 71.5756 125.823 71.5756C125.823 71.5756 123.356 69.7434 119.692 72.2099C115.182 75.3106 116.169 83.2737 116.169 83.2737L117.578 84.1193L143.934 68.5454C143.863 68.5454 142.172 62.6259 138.155 60.9347Z" fill="#333333"/>
<path d="M117.507 84.0486L143.863 68.4747C143.863 68.4747 141.044 58.8203 134.138 60.723C127.232 62.6257 127.162 72.3505 127.162 72.3505C127.162 72.3505 124.695 70.5183 121.031 72.9848C116.521 76.0854 117.507 84.0486 117.507 84.0486Z" fill="#68E1FD"/>
<path d="M43.0209 74.1828C40.0612 71.8573 36.1149 71.1526 32.5209 72.2097C19.1316 75.9446 18.9202 94.7601 18.9202 94.7601C18.9202 94.7601 14.0577 91.1661 7.01071 96.0285C-1.72758 102.019 0.175112 117.522 0.175112 117.522L2.92345 119.143L54.1552 88.8406C54.1552 88.8406 50.8431 77.4244 43.0209 74.1828Z" fill="#68E1FD"/>
<path opacity="0.1" d="M43.0209 74.1828C40.0612 71.8573 36.1149 71.1526 32.5209 72.2097C19.1316 75.9446 18.9202 94.7601 18.9202 94.7601C18.9202 94.7601 14.0577 91.1661 7.01071 96.0285C-1.72758 102.019 0.175112 117.522 0.175112 117.522L2.92345 119.143L54.1552 88.8406C54.1552 88.8406 50.8431 77.4244 43.0209 74.1828Z" fill="#333333"/>
<path d="M2.92316 119.143L54.1549 88.8408C54.1549 88.8408 48.7287 70.0253 35.3394 73.8307C21.9501 77.6361 21.7387 96.3811 21.7387 96.3811C21.7387 96.3811 16.8762 92.7871 9.75876 97.6496C1.02047 103.64 2.92316 119.143 2.92316 119.143Z" fill="#68E1FD"/>
<path d="M70.645 172.56C67.8967 169.529 65.2893 166.358 62.8228 163.117C58.5946 157.409 54.0845 150.996 52.3228 144.019C50.0677 135.211 51.1248 124.358 59.0174 118.65C68.3195 111.955 83.7524 115.549 88.5444 126.19C94.7458 139.932 85.2323 153.039 77.6215 163.751C75.3665 166.922 72.9705 169.811 70.645 172.56Z" fill="#F15A24"/>
<path d="M70.9973 146.626C76.8352 146.626 81.5678 141.894 81.5678 136.056C81.5678 130.218 76.8352 125.485 70.9973 125.485C65.1593 125.485 60.4268 130.218 60.4268 136.056C60.4268 141.894 65.1593 146.626 70.9973 146.626Z" fill="white"/>
</svg>
