<svg width="1101" height="1042" viewBox="0 0 1101 1042" fill="none" xmlns="http://www.w3.org/2000/svg">
<path d="M550.5 276.781C550.5 411.659 437.326 521 297.72 521H44.939V276.781C44.939 141.903 158.113 32.5625 297.72 32.5625C437.326 32.5625 550.5 141.903 550.5 276.781Z" fill="white"/>
<path d="M550.5 765.219C550.5 630.341 663.674 521 803.281 521H1056.06V765.219C1056.06 900.097 942.887 1009.44 803.281 1009.44C663.674 1009.44 550.5 900.097 550.5 765.219Z" fill="white"/>
<path d="M44.939 765.219C44.939 900.097 158.113 1009.44 297.72 1009.44H550.5V765.219C550.5 630.341 437.326 521 297.72 521C158.113 521 44.939 630.341 44.939 765.219Z" fill="white"/>
<path d="M1056.06 276.781C1056.06 141.903 942.887 32.5625 803.281 32.5625H550.5V276.781C550.5 411.659 663.674 521 803.281 521C942.887 521 1056.06 411.659 1056.06 276.781Z" fill="white"/>
</svg>
