<svg width="199" height="157" viewBox="0 0 199 157" fill="none" xmlns="http://www.w3.org/2000/svg">
<path d="M36.853 127.097C36.9451 126.821 37.0832 126.545 37.1753 126.269C37.4055 125.716 37.5897 125.164 37.7738 124.611C38.4644 122.631 39.0629 120.652 39.5693 118.626C40.1218 116.6 40.4901 114.575 40.7203 112.503C40.7203 112.641 40.5821 113.424 40.6742 112.871L40.7203 112.457C40.7663 112.227 40.7663 111.997 40.8123 111.812C40.8584 111.306 40.9044 110.8 40.9505 110.293C41.0425 109.28 41.0886 108.268 41.1346 107.255C41.1806 105.183 41.1806 103.111 41.0425 100.993C40.9965 99.9806 40.9044 98.9678 40.7663 97.9549C40.7663 97.7247 40.7203 97.5406 40.6742 97.3104V97.1262C40.5821 96.6198 40.5361 96.1134 40.444 95.607C40.1218 93.7654 39.7535 91.9239 39.247 90.1284L12.5448 105.551C10.1968 106.932 9.36815 109.971 10.7493 112.319C11.1636 113.056 11.8082 113.7 12.5448 114.114L36.4847 127.972L36.807 127.281L36.853 127.097Z" fill="#45CA8F"/>
<path d="M94.9998 83.039L99.4655 85.6172C100.248 86.0775 101.031 86.5379 101.859 86.9983L102.136 87.1364L103.056 86.63L105.174 85.433C106.601 84.6043 108.029 83.7756 109.502 82.9469C112.402 81.2435 115.303 79.5401 118.203 77.7907C127.411 72.2661 136.526 66.5113 145.504 60.5263L122.715 47.4054C119.722 45.6559 116.039 45.6559 113.047 47.4054L73.2236 70.4706L86.0223 77.8367L94.9998 83.039Z" fill="#45CA8F"/>
<path d="M103.747 135.983C103.286 136.029 102.872 135.983 102.458 135.845C98.268 134.464 94.1246 133.082 89.9351 131.701C75.8013 126.959 61.7596 121.941 47.81 116.739C46.8893 121.941 45.37 127.005 43.1602 131.839L82.9373 154.859C86.16 156.7 90.0732 156.7 93.2959 154.859L105.404 147.815C104.898 144.408 104.391 141.001 103.931 137.64C103.885 137.042 103.839 136.535 103.747 135.983Z" fill="#45CA8F"/>
<path d="M48.7317 108.912C52.599 110.386 56.5122 111.813 60.4255 113.24C74.4672 118.35 88.5549 123.23 102.735 127.88C101.354 116.739 100.295 105.552 99.466 94.3182C99.1898 94.2261 98.9596 94.088 98.6833 93.9499C97.118 93.2132 95.6908 92.2925 94.1716 91.4178L89.4757 88.7015L80.314 83.4531L65.4437 74.936L46.0615 86.1694C46.3838 87.1362 46.66 88.103 46.8902 89.0698C48.5016 95.5612 49.1001 102.237 48.7317 108.912Z" fill="#45CA8F"/>
<path d="M193.199 88.0106L152.824 64.7612C147.437 68.3522 142.005 71.8972 136.572 75.3961C133.948 77.0535 131.278 78.7108 128.607 80.3682C131.324 82.0256 134.04 83.729 136.756 85.3864C148.91 92.9367 160.972 100.625 172.942 108.452L193.199 96.6658C195.593 95.2846 196.422 92.2001 195.041 89.8061C194.58 89.1155 193.936 88.471 193.199 88.0106Z" fill="#45CA8F"/>
<path d="M121.241 84.8804L119.17 86.1234C116.223 87.8729 113.323 89.5763 110.33 91.2797C109.225 91.9242 108.166 92.5688 107.062 93.1673C107.338 96.9885 107.66 100.856 107.982 104.677C108.627 112.089 109.409 119.455 110.284 126.821C110.514 128.663 110.745 130.504 110.975 132.3C111.113 133.267 111.205 134.233 111.343 135.2V135.292L111.435 135.799L111.619 137.18C111.942 139.344 112.218 141.508 112.54 143.671L165.53 112.826L163.965 111.813C149.831 102.651 135.605 93.6737 121.241 84.8804Z" fill="#45CA8F"/>
<path d="M128.607 80.3684C131.278 78.711 133.948 77.0536 136.572 75.3963C142.051 71.9434 147.437 68.3984 152.824 64.7614L145.411 60.5259C136.434 66.4648 127.364 72.2196 118.111 77.7903C115.21 79.5397 112.31 81.2431 109.41 82.9465C107.982 83.7752 106.555 84.6039 105.082 85.4326L102.964 86.6296L102.089 87.136L101.813 86.9979C101.031 86.5375 100.202 86.0771 99.4192 85.6168L94.9535 83.0386L85.8839 77.8363L73.0853 70.4702L65.3969 74.9359L80.2212 83.453L89.3828 88.7013L94.0787 91.4176C95.552 92.2923 97.0252 93.2131 98.5905 93.9497C98.8667 94.0878 99.0969 94.1799 99.3731 94.318C100.202 105.551 101.307 116.739 102.642 127.88C88.4621 123.23 74.3283 118.35 60.3326 113.24C56.4194 111.813 52.5522 110.385 48.6389 108.912C49.0533 102.237 48.4087 95.561 46.7974 89.0696C46.5672 88.1028 46.291 87.136 45.9687 86.1692L39.109 90.1285C39.5694 91.924 39.9377 93.7195 40.2599 95.561C40.352 96.0675 40.4441 96.5739 40.4901 97.0803V97.2645C40.4901 97.4947 40.5362 97.6788 40.5822 97.909C40.7203 98.9218 40.8124 99.9347 40.8584 100.948C40.9965 103.019 41.0426 105.091 40.9505 107.209C40.9045 108.222 40.8584 109.234 40.7664 110.247C40.7203 110.754 40.6743 111.26 40.6282 111.767C40.6282 111.997 40.5822 112.181 40.5362 112.411L40.4901 112.871C40.4441 113.424 40.5362 112.641 40.5362 112.503C40.306 114.575 39.9377 116.601 39.3852 118.626C38.8788 120.652 38.2803 122.632 37.5897 124.611C37.4056 125.164 37.1754 125.716 36.9912 126.269C36.8991 126.545 36.761 126.821 36.6689 127.097L36.5769 127.281L36.3467 127.972L43.0222 131.839C45.186 127.005 46.7513 121.941 47.6721 116.739C61.6217 121.941 75.6634 126.959 89.7972 131.701C93.9406 133.082 98.1301 134.463 102.32 135.845C102.734 135.983 103.194 136.029 103.609 135.983C103.655 136.489 103.747 137.042 103.839 137.548C104.299 140.955 104.806 144.362 105.312 147.769L112.402 143.625C112.08 141.461 111.803 139.297 111.481 137.134L111.297 135.753L111.205 135.246V135.2C111.067 134.233 110.975 133.266 110.837 132.3C110.607 130.458 110.376 128.663 110.146 126.821C109.271 119.455 108.489 112.089 107.844 104.677C107.522 100.855 107.2 96.9882 106.923 93.1671C108.028 92.5686 109.133 91.878 110.192 91.2795C113.139 89.5761 116.085 87.8726 119.032 86.1232L121.103 84.8802C135.467 93.6735 149.693 102.651 163.827 111.813L165.392 112.825L172.85 108.498C160.88 100.671 148.818 92.9829 136.664 85.4326C134.04 83.7292 131.324 82.0718 128.607 80.3684Z" fill="#F8E6D2"/>
<path opacity="0.46" d="M46.0146 114.391C52.0406 114.391 56.9257 113.381 56.9257 112.135C56.9257 110.889 52.0406 109.879 46.0146 109.879C39.9886 109.879 35.1035 110.889 35.1035 112.135C35.1035 113.381 39.9886 114.391 46.0146 114.391Z" fill="#8EC62C"/>
<path opacity="0.46" d="M94.125 93.3975L118.157 77.7445L140.716 71.207L144.675 72.9104L105.681 99.8429L94.125 93.3975Z" fill="#8EC62C"/>
<path d="M105.957 17.5265C106.326 17.2042 106.786 17.1122 107.246 17.2503C107.477 17.2963 107.707 17.1582 107.753 16.974C107.799 16.7438 107.661 16.5137 107.477 16.4676C106.74 16.2374 105.957 16.4216 105.359 16.928C105.037 17.3423 105.589 17.9408 105.957 17.5265Z" fill="#F15A24"/>
<path d="M134.639 20.565C134.639 20.4268 135.882 21.854 136.112 23.1891C136.343 24.5242 135.836 28.3915 135.376 28.8519C134.915 29.3122 132.844 29.8647 132.844 29.8647" fill="#333333"/>
<path d="M125.477 10.6665C124.649 13.6589 123.958 16.6514 123.222 19.6439C122.991 20.3805 122.899 21.1632 122.991 21.9458C123.222 22.9126 123.728 23.8334 124.465 24.524C126.122 26.4116 127.871 28.2071 129.805 29.8644C130.219 30.2788 130.726 30.601 131.324 30.7852C131.877 30.8773 132.429 30.8312 132.936 30.6931C133.672 30.6471 134.271 30.0486 134.225 29.312C134.225 29.2659 134.225 29.2199 134.225 29.1739C134.639 25.3527 134.639 21.5315 134.731 17.6643C134.777 16.3752 134.823 15.0401 134.271 13.8431C133.718 12.6921 132.751 11.7714 131.554 11.2189C129.575 10.2981 127.641 9.37738 125.385 8.91699" fill="#333333"/>
<path d="M113.139 21.4394C112.08 20.887 111.528 19.7821 110.515 19.0915L110.469 19.0454H110.377C110.009 18.9534 109.686 19.1375 109.594 19.5058C109.548 19.6439 109.594 19.8281 109.64 19.9662C109.917 20.4726 110.331 20.8409 110.837 21.1172C110.929 21.2553 111.067 21.3934 111.252 21.3934C111.85 21.5315 112.449 21.7617 113.001 21.9919C113.323 22.176 113.692 22.0379 113.876 21.7617C113.968 21.6236 113.968 21.4394 113.922 21.2553C113.738 21.5315 113.369 21.5775 113.139 21.4394Z" fill="#FFC4B0"/>
<path d="M113.185 23.3733C112.817 22.4525 112.495 21.5778 112.126 20.657C111.896 20.4268 111.666 20.1966 111.436 19.9204C111.39 19.9204 111.344 19.9204 111.298 19.9204C110.975 19.9204 110.699 20.1966 110.699 20.5649C110.699 20.611 110.699 20.7031 110.745 20.7491L110.837 20.9793C110.791 21.1634 110.791 21.3476 110.837 21.4857L111.666 23.2352C111.758 23.5114 111.896 23.7876 112.08 24.0639L112.265 24.4322C112.633 25.1688 113.738 24.5242 113.369 23.7876L113.185 23.3733Z" fill="#FFC4B0"/>
<path d="M120.874 10.8506L120.782 11.0347C120.644 11.357 120.413 11.6793 120.229 12.0015C119.999 12.7842 119.815 13.5668 119.585 14.3495C119.17 15.8688 119.17 17.6182 118.342 18.9533C117.329 20.6107 115.073 20.3345 113.508 19.736C113.093 19.5979 112.679 19.3677 112.265 19.1835C112.08 21.3934 112.08 23.7874 112.955 25.8591C114.797 26.5036 116.73 26.8259 118.71 26.7338C120.966 26.6417 124.05 25.9512 124.925 23.5572L120.874 10.8506Z" fill="#45CA8F"/>
<path d="M120.644 15.04C120.275 18.0325 120.644 21.2552 119.401 24.0635C118.986 24.9843 118.48 25.813 117.789 26.5496L117.697 26.6877C120.367 26.6416 121.38 26.2273 121.38 26.2273L120.966 12.9683C120.874 13.1985 120.736 13.7509 120.506 14.5336C120.644 14.6717 120.69 14.8558 120.644 15.04Z" fill="#333333"/>
<path d="M105.312 19.5059L109.594 25.583L112.771 25.8132L108.489 19.3218L105.312 19.5059Z" fill="#333333"/>
<path d="M106.509 18.355L109.502 18.6773L114.198 25.2147L112.771 25.8132L108.95 20.5188L105.312 19.5059L106.509 18.355Z" fill="#606060"/>
<path d="M109.778 23.9717H109.548C109.778 23.6954 109.732 23.2811 109.456 23.0509C109.364 22.9588 109.226 22.9128 109.042 22.9128H108.535C108.765 22.6826 108.811 22.3603 108.627 22.0841C108.351 21.6698 107.2 21.6237 106.97 22.0841C106.786 22.4064 106.878 22.7747 107.2 22.9588L107.338 23.0049C107.062 23.2811 107.062 23.6954 107.338 23.9717C107.476 24.1098 107.614 24.1558 107.799 24.1558H107.891C107.66 24.4321 107.752 24.8464 108.029 25.0766C108.121 25.1687 108.305 25.2147 108.443 25.1687C108.903 25.2147 109.364 25.2147 109.824 25.2147C110.193 25.2147 110.469 24.9385 110.469 24.5702C110.469 24.2479 110.193 23.9717 109.778 23.9717Z" fill="#FFC4B0"/>
<path d="M117.098 72.1274C117.374 73.8309 117.42 75.5803 117.236 77.3298C117.19 77.6981 117.144 78.1124 117.052 78.5268L121.471 77.7902V72.1274H117.098Z" fill="#FFC4B0"/>
<path d="M117.098 75.1204C116.822 76.6857 115.993 78.8495 115.164 79.6322C114.151 80.5529 108.489 83.5914 110.837 85.2028C112.586 86.3998 122.07 81.6578 122.3 80.3688C122.484 79.448 121.978 76.5476 121.702 75.0283C120.367 75.811 118.617 75.6729 117.098 75.1204Z" fill="#333333"/>
<path d="M122.807 72.3575C123.083 67.3394 123.774 58.1777 123.912 57.7173C124.05 57.0728 126.536 47.4968 126.536 47.4968C125.845 44.2742 125.247 41.0515 124.833 37.7827C124.05 37.7367 125.753 28.9894 125.017 28.8053C123.497 28.483 122.07 26.3652 120.643 25.7207C119.17 33.9616 114.474 58.1777 113.415 71.1145C114.474 73.3704 119.4 73.7387 122.807 72.3575Z" fill="#FFB000"/>
<path d="M137.079 64.7615C138.184 66.0046 139.427 68.8129 140.21 70.2401C140.394 70.5624 140.578 70.8846 140.716 71.2069L143.571 68.8589L140.67 62.4136L137.079 64.7615Z" fill="#FFC4B0"/>
<path d="M142.649 66.4194C141.913 67.6164 140.624 68.261 139.242 68.1229C139.381 69.0897 139.795 70.9772 139.335 71.6218C138.69 72.5886 134.04 76.6399 136.526 77.6528C138.322 78.3894 144.767 72.7267 144.675 71.5757C144.583 70.747 143.202 67.7085 142.649 66.4194Z" fill="#333333"/>
<path d="M135.1 68.4445C135.146 68.5366 135.284 68.5826 135.376 68.5366C136.895 67.9381 138.322 67.2015 139.658 66.2807C140.993 65.2679 141.591 64.1169 142.65 62.7358L142.098 61.815C139.565 56.7047 134.593 39.6706 134.363 38.4736C134.087 37.0924 132.936 24.6621 132.936 24.6621L121.564 22.5903C121.564 22.5903 121.979 33.4554 122.854 43.0774C123.268 44.7808 123.82 46.4382 124.419 48.0495C126.951 54.7711 130.22 62.7818 135.1 68.4445Z" fill="#FFB000"/>
<path d="M133.212 40.2691C133.166 39.2562 133.028 38.2434 132.798 37.2766C132.798 36.1256 132.706 34.9747 132.521 33.8237C131.278 33.7777 130.035 33.7777 128.792 33.8697C128.792 34.4682 128.792 35.1128 128.746 35.7113C128.608 36.1716 128.47 36.632 128.378 37.0924C128.286 37.1385 128.24 37.2305 128.194 37.3226C127.641 38.4736 127.273 39.7626 127.089 41.0517C127.089 41.42 127.411 41.6962 127.779 41.6962C128.01 41.6962 128.194 41.5581 128.332 41.374C128.516 40.9596 128.7 40.5453 128.884 40.0849V41.8344C128.884 42.2027 129.207 42.4789 129.575 42.4789C129.897 42.5249 130.219 42.3408 130.358 42.0185C130.588 42.2948 130.956 42.4329 131.278 42.2947C131.555 42.1566 131.739 41.9264 131.831 41.6502C132.061 41.7883 132.383 41.7883 132.613 41.6502C133.166 41.374 133.212 40.7755 133.212 40.2691Z" fill="#FFC4B0"/>
<path d="M131.647 14.3036C130.588 11.9557 126.628 10.1602 125.109 9.51562C124.649 9.51562 124.142 9.56166 123.682 9.6077L123.084 9.69978L122.669 9.79185C122.439 9.83789 122.255 9.92997 122.025 9.97601C121.748 10.1141 121.472 10.2983 121.15 10.4824C121.104 10.5285 121.058 10.5285 121.012 10.5285C120.782 10.7126 120.551 10.9428 120.367 11.173L120.321 11.219C120.183 11.8175 120.091 12.4621 120.091 13.0606C120.045 14.8561 120.045 16.6976 120.183 18.4931C120.321 20.8871 120.551 23.2811 120.69 25.6751L120.92 26.826C123.36 28.8057 127.641 29.4042 128.01 29.3121C128.378 29.22 128.01 32.6729 127.779 35.0669C128.654 35.2971 129.529 35.4812 130.404 35.5733C131.048 35.6654 131.693 35.7114 132.337 35.7575H133.488C135.192 25.6751 133.028 17.204 131.647 14.3036Z" fill="#45CA8F"/>
<path d="M123.728 11.3573C124.096 11.5875 124.511 11.6796 124.971 11.7257C126.352 11.8177 127.181 10.3445 127.687 9.28562C128.378 8.04259 128.746 6.70748 128.792 5.28029C128.792 5.0501 128.792 4.81991 128.7 4.58971C128.194 3.02441 122.485 1.82741 122.209 4.95802C122.025 6.79955 121.887 10.2064 123.728 11.3573Z" fill="#FFC4B0"/>
<path d="M128.148 6.9375C127.733 6.9375 127.365 7.07562 127.089 7.35185C126.767 7.62808 126.582 7.99638 126.536 8.41073C126.49 8.59488 126.582 8.73299 126.721 8.82507C126.859 9.05526 127.135 9.14734 127.365 9.00922H127.411C127.779 8.77903 128.148 8.45676 128.378 8.08846C128.654 7.67411 128.7 7.07561 128.148 6.9375Z" fill="#FFC4B0"/>
<path d="M130.265 3.11639C130.173 2.42581 129.758 1.82731 129.206 1.45901C128.561 1.04466 127.779 0.906548 127.042 1.13674C126.766 0.676356 126.352 0.308047 125.845 0.123894C124.878 -0.198374 123.865 0.123896 123.221 0.906548C122.392 0.814471 121.61 1.04466 120.919 1.45901C120.228 1.96543 119.768 2.79412 119.722 3.66885C119.722 3.80696 119.722 3.94508 119.722 4.03715C119.676 4.26734 119.676 4.49754 119.722 4.72773C119.952 5.87868 120.965 6.70738 122.162 6.70738C122.024 5.87869 122.162 4.26734 123.129 4.68169C123.175 4.68169 123.221 4.68169 123.267 4.72773C123.865 5.00396 123.359 5.83265 124.234 5.97076C125.109 6.10888 125.615 5.4183 126.444 6.20096C127.272 6.98361 125.477 7.85833 127.364 9.33156C127.364 9.42364 127.364 9.51572 127.41 9.65383C127.41 9.51572 128.147 8.82514 128.285 8.73306C128.607 8.36476 128.884 7.99645 129.16 7.62814C129.666 7.02964 130.035 6.33907 130.311 5.55642C130.449 4.72773 130.449 3.89904 130.265 3.11639Z" fill="#333333"/>
<path d="M127.964 8.04244C128.056 7.48998 127.641 7.16771 127.181 7.39791C126.537 7.76621 126.122 8.45679 126.076 9.23944C126.076 9.37755 126.122 9.51567 126.214 9.65378C126.214 9.69982 126.26 9.74586 126.306 9.74586C126.491 9.93001 126.813 9.93001 126.997 9.74586L127.043 9.69982C127.549 9.28548 127.872 8.68698 127.964 8.04244Z" fill="#FFC4B0"/>
<path d="M122.347 8.96305C122.255 8.96305 122.117 8.91701 122.025 8.87098C121.012 8.45663 121.058 6.70717 121.058 6.6151V6.33887L121.334 6.43095C122.117 6.70718 123.038 7.02944 123.176 7.07548L123.36 7.12152V7.30567C123.36 7.44379 123.268 8.54871 122.669 8.87098C122.577 8.91701 122.439 8.96305 122.347 8.96305ZM121.472 6.93737C121.518 7.44379 121.656 8.27248 122.163 8.50267C122.255 8.54871 122.347 8.54871 122.439 8.50267C122.715 8.22644 122.853 7.81209 122.899 7.44379C122.577 7.35171 121.887 7.07548 121.472 6.93737Z" fill="#333333"/>
<path d="M124.971 9.88367C124.879 9.88367 124.741 9.88367 124.649 9.83763C124.326 9.79159 124.004 9.5614 123.866 9.28517C123.498 8.5946 123.82 7.58175 123.82 7.53571L123.866 7.35156L126.168 8.13421V8.27233C126.168 8.77875 125.984 9.28517 125.615 9.65348C125.431 9.79159 125.201 9.88367 124.971 9.88367ZM124.142 7.85798C124.004 8.27233 124.05 8.68667 124.188 9.10102C124.28 9.28517 124.511 9.42329 124.695 9.46933C124.925 9.51536 125.155 9.51536 125.339 9.37725C125.569 9.14705 125.708 8.77875 125.708 8.45648L124.142 7.85798Z" fill="#333333"/>
<path d="M126.859 7.35208L125.938 8.18077C125.846 8.27284 125.984 8.457 126.122 8.36492L127.043 7.53623C127.181 7.39812 126.997 7.26 126.859 7.35208Z" fill="#333333"/>
<path d="M123.313 9.6076C123.175 9.6076 122.945 9.56156 122.945 9.3774C122.991 9.28533 123.037 9.14721 123.083 9.05514C123.175 8.87098 123.267 8.64079 123.36 8.45664C123.406 8.4106 123.36 8.31853 123.313 8.27249C123.267 8.22645 123.175 8.27249 123.129 8.31853C123.037 8.50268 122.899 8.73287 122.853 8.91702C122.761 9.05514 122.715 9.23929 122.669 9.42345C122.669 9.69968 123.083 9.83779 123.313 9.83779C123.544 9.83779 123.452 9.65363 123.313 9.6076Z" fill="#333333"/>
<path d="M124.096 7.4898C123.728 7.39773 123.406 7.30565 123.084 7.21357C122.945 7.16753 122.899 7.39773 123.037 7.44376C123.36 7.53584 123.728 7.67396 124.05 7.71999C124.188 7.76603 124.234 7.4898 124.096 7.4898Z" fill="#333333"/>
<path d="M125.616 51.1343C125.616 51.1343 123.728 44.4587 122.623 41.0059L123.59 61.2627C123.59 61.2627 124.695 53.7585 125.616 51.1343Z" fill="#333333"/>
<path d="M130.173 12.416C130.173 12.416 126.49 14.1194 128.608 25.2607C128.608 25.2607 125.293 19.5979 125.477 16.1911C125.661 12.7843 127.227 10.7586 128.009 10.5744C128.792 10.3903 130.587 11.6794 130.173 12.416Z" fill="#333333"/>
<path d="M120.183 11.5413C119.492 14.3496 120.183 17.204 120.137 18.8154C120.137 17.0659 120.321 15.3165 120.689 13.613C121.011 12.324 121.472 10.6666 122.577 9.83789C122.623 9.88393 120.551 10.1602 120.183 11.5413Z" fill="#45CA8F"/>
<path d="M104.806 16.4212C105.451 15.3163 106.74 15.3163 107.799 15.8227C108.259 16.0989 108.673 15.3623 108.213 15.0861C106.786 14.3034 104.99 14.4876 104.069 15.9608C103.931 16.145 104.023 16.4212 104.208 16.5593C104.392 16.6974 104.714 16.6054 104.806 16.4212Z" fill="#F15A24"/>
<path d="M103.701 15.4544C104.069 13.5668 106.878 13.2906 108.167 14.3955C108.581 14.7638 109.18 14.1653 108.765 13.797C107.062 12.2778 103.379 12.6461 102.872 15.2242C102.78 15.7306 103.609 15.9608 103.701 15.4544Z" fill="#F15A24"/>
<path d="M189.515 50.5353C186.983 48.5556 183.669 47.9111 180.584 48.8779C169.166 52.0545 169.028 68.0759 169.028 68.0759C169.028 68.0759 164.885 65.0373 158.854 69.1347C151.396 74.245 153.007 87.458 153.007 87.458L155.355 88.8391L198.953 63.0577C198.999 63.0577 196.191 53.2976 189.515 50.5353Z" fill="#68E1FD"/>
<path opacity="0.1" d="M189.515 50.5353C186.983 48.5556 183.669 47.9111 180.584 48.8779C169.166 52.0545 169.028 68.0759 169.028 68.0759C169.028 68.0759 164.885 65.0373 158.854 69.1347C151.396 74.245 153.007 87.458 153.007 87.458L155.355 88.8391L198.953 63.0577C198.999 63.0577 196.191 53.2976 189.515 50.5353Z" fill="#333333"/>
<path d="M155.402 88.8859L199 63.1044C199 63.1044 194.35 47.0831 182.933 50.3057C171.515 53.5284 171.377 69.4577 171.377 69.4577C171.377 69.4577 167.234 66.4191 161.203 70.5166C153.791 75.6729 155.402 88.8859 155.402 88.8859Z" fill="#68E1FD"/>
<path d="M90.2576 39.8091C89.2448 39.0264 87.9557 38.7962 86.7587 39.1645C82.247 40.4076 82.2009 46.7608 82.2009 46.7608C82.2009 46.7608 80.5896 45.5638 78.1956 47.1752C75.2491 49.2009 75.8937 54.4032 75.8937 54.4032L76.8145 54.9557L94.0328 44.7812C93.9868 44.7812 92.8818 40.914 90.2576 39.8091Z" fill="#68E1FD"/>
<path opacity="0.1" d="M90.2576 39.8091C89.2448 39.0264 87.9557 38.7962 86.7587 39.1645C82.247 40.4076 82.2009 46.7608 82.2009 46.7608C82.2009 46.7608 80.5896 45.5638 78.1956 47.1752C75.2491 49.2009 75.8937 54.4032 75.8937 54.4032L76.8145 54.9557L94.0328 44.7812C93.9868 44.7812 92.8818 40.914 90.2576 39.8091Z" fill="#333333"/>
<path d="M76.7687 54.9092L93.987 44.7348C93.987 44.7348 92.1455 38.4275 87.6337 39.6706C83.122 40.9136 83.0759 47.2669 83.0759 47.2669C83.0759 47.2669 81.4646 46.0699 79.0706 47.6812C76.1241 49.7069 76.7687 54.9092 76.7687 54.9092Z" fill="#68E1FD"/>
<path d="M28.1057 48.4637C26.1721 46.9444 23.5939 46.484 21.246 47.1746C12.4987 49.6147 12.3606 61.9069 12.3606 61.9069C12.3606 61.9069 9.18395 59.5589 4.58012 62.7356C-1.12863 66.6488 0.114401 76.7773 0.114401 76.7773L1.9099 77.8361L35.3798 58.0397C35.3798 58.0397 33.216 50.5815 28.1057 48.4637Z" fill="#68E1FD"/>
<path opacity="0.1" d="M28.1057 48.4637C26.1721 46.9444 23.5939 46.484 21.246 47.1746C12.4987 49.6147 12.3606 61.9069 12.3606 61.9069C12.3606 61.9069 9.18395 59.5589 4.58012 62.7356C-1.12863 66.6488 0.114401 76.7773 0.114401 76.7773L1.9099 77.8361L35.3798 58.0397C35.3798 58.0397 33.216 50.5815 28.1057 48.4637Z" fill="#333333"/>
<path d="M1.9103 77.8365L35.3802 58.04C35.3802 58.04 31.8352 45.7478 23.0879 48.2338C14.3406 50.7199 14.2025 62.9661 14.2025 62.9661C14.2025 62.9661 11.0259 60.6181 6.37602 63.7948C0.667265 67.708 1.9103 77.8365 1.9103 77.8365Z" fill="#68E1FD"/>
<path d="M46.1527 112.734C44.3572 110.754 42.6538 108.682 41.0424 106.565C38.2801 102.835 35.3337 98.646 34.1827 94.0882C32.7095 88.3334 33.4001 81.2435 38.5564 77.5144C44.6334 73.1407 54.7158 75.4887 57.8464 82.4405C61.8978 91.4179 55.6826 99.9811 50.7105 106.979C49.2373 109.051 47.672 110.938 46.1527 112.734Z" fill="#F15A24"/>
<path d="M46.3833 95.7915C50.1972 95.7915 53.289 92.6997 53.289 88.8857C53.289 85.0718 50.1972 81.98 46.3833 81.98C42.5694 81.98 39.4775 85.0718 39.4775 88.8857C39.4775 92.6997 42.5694 95.7915 46.3833 95.7915Z" fill="white"/>
</svg>
